<?xml version="1.0" encoding="UTF-8" standalone="no"?>
<svg xmlns:dc="http://purl.org/dc/elements/1.1/" xmlns:cc="http://creativecommons.org/ns#" xmlns:rdf="http://www.w3.org/1999/02/22-rdf-syntax-ns#" xmlns:svg="http://www.w3.org/2000/svg" xmlns="http://www.w3.org/2000/svg" xmlns:sodipodi="http://sodipodi.sourceforge.net/DTD/sodipodi-0.dtd" xmlns:inkscape="http://www.inkscape.org/namespaces/inkscape" width="32px" height="32px" viewBox="0 0 32 32.000001" id="svg2" version="1.1" inkscape:version="0.91 r13725" sodipodi:docname="599 earth global globe international map planet world.svg">
  <defs id="defs4">
    <pattern y="0" x="0" height="6" width="6" patternUnits="userSpaceOnUse" id="EMFhbasepattern"/>
    <pattern y="0" x="0" height="6" width="6" patternUnits="userSpaceOnUse" id="EMFhbasepattern-1"/>
  </defs>
  <sodipodi:namedview id="base" pagecolor="#ffffff" bordercolor="#666666" borderopacity="1.0" inkscape:pageopacity="0.0" inkscape:pageshadow="2" inkscape:zoom="7.9195959" inkscape:cx="11.43027" inkscape:cy="27.029436" inkscape:document-units="px" inkscape:current-layer="layer1" showgrid="true" units="px" inkscape:window-width="1366" inkscape:window-height="705" inkscape:window-x="-8" inkscape:window-y="-8" inkscape:window-maximized="1" inkscape:snap-bbox="true" inkscape:bbox-paths="true" inkscape:bbox-nodes="true" inkscape:snap-bbox-edge-midpoints="true" inkscape:snap-bbox-midpoints="true">
    <inkscape:grid type="xygrid" id="grid3470"/>
  </sodipodi:namedview>
  
  <g inkscape:label="Layer 1" inkscape:groupmode="layer" id="layer1" transform="translate(0,-1020.3622)">
    <path style="color:#000000;font-style:normal;font-variant:normal;font-weight:normal;font-stretch:normal;font-size:medium;line-height:normal;font-family:sans-serif;text-indent:0;text-align:start;text-decoration:none;text-decoration-line:none;text-decoration-style:solid;text-decoration-color:#000000;letter-spacing:normal;word-spacing:normal;text-transform:none;direction:ltr;block-progression:tb;writing-mode:lr-tb;baseline-shift:baseline;text-anchor:start;white-space:normal;clip-rule:nonzero;display:inline;overflow:visible;visibility:visible;opacity:1;isolation:auto;mix-blend-mode:normal;color-interpolation:sRGB;color-interpolation-filters:linearRGB;solid-color:#000000;solid-opacity:1;fill:#000000;fill-opacity:1;fill-rule:nonzero;stroke:none;stroke-width:1;stroke-linecap:butt;stroke-linejoin:miter;stroke-miterlimit:4;stroke-dasharray:none;stroke-dashoffset:0;stroke-opacity:1;color-rendering:auto;image-rendering:auto;shape-rendering:auto;text-rendering:auto;enable-background:accumulate" d="M 16 2.5 C 8.5500782 2.5 2.5 8.5501 2.5 16 C 2.5 23.4499 8.5500782 29.5 16 29.5 C 23.449922 29.5 29.5 23.4499 29.5 16 C 29.5 8.5501 23.449922 2.5 16 2.5 z M 16 3.5 C 17.914842 3.5 19.720472 3.9411733 21.341797 4.7089844 C 20.170971 4.9449662 19.175703 5.4591963 18.9375 5.40625 C 18.57258 5.32525 16.80513 5.6318 16.15625 5.875 C 15.50737 6.1186 15.56847 6.42805 15.40625 6.46875 C 15.24371 6.50975 15.15733 6.6536 14.90625 6.9375 C 14.65486 7.2212 15.03125 7.5625 15.03125 7.5625 C 15.03125 7.5625 15.99403 7.7791 16.15625 7.0625 C 16.25205 6.6366 16.11515 7.4258 16.15625 7.75 C 16.19675 8.0745 16.80088 8.1554 17.125 7.75 C 17.27109 7.5675 17.25078 7.12095 17.34375 6.96875 C 17.45822 6.78285 17.70999 6.92525 17.84375 6.90625 C 17.92435 6.89625 17.74036 7.03265 17.84375 7.09375 C 18.05087 7.21605 18.47746 7.0068 18.375 7.5 C 18.3339 7.6985 17.70595 7.73835 17.625 8.03125 C 17.5434 8.32415 17.40625 8.5 17.40625 8.5 L 16.0625 8.53125 L 15.625 7.90625 C 15.625 7.90625 15.19866 8.09075 15.3125 8.46875 C 15.3906 8.72945 15.1875 9.03125 15.1875 9.03125 C 15.1875 9.03125 14.5 9.14115 14.5 9.34375 C 14.5 9.45505 14.21966 9.46895 14.0625 9.53125 C 13.93348 9.58225 13.84619 9.7944 13.71875 9.8125 C 13.64255 9.8225 13.1678 9.89125 13.0625 9.90625 C 12.77727 9.94125 12.90625 10.0065 12.90625 10.125 C 12.90625 10.2871 13.4375 10.3125 13.4375 10.3125 C 13.4375 10.3125 13.77768 10.4444 13.65625 10.6875 C 13.53451 10.9311 13.74315 11.03125 13.5 11.03125 C 13.39438 11.03125 13.14974 10.998 12.90625 11 C 12.5913 11 12.28852 10.90125 12.28125 11.03125 C 12.25125 11.53185 12.25 12.25 12.25 12.25 C 12.25 12.25 12.67667 12.46075 12.90625 12.40625 C 13.22437 12.33225 13.68995 12.5813 13.90625 12 C 13.92305 11.955 13.93425 11.858 13.96875 11.8125 C 14.11927 11.6152 14.28207 11.21745 14.53125 11.09375 C 14.6843 11.01675 14.89665 11.0665 14.96875 11.0625 C 15.13066 11.0525 15.40625 10.84375 15.40625 10.84375 C 15.40625 10.84375 16.12372 10.94075 16.3125 11.65625 C 16.3685 11.86725 16.3155 12.21405 16.4375 12.28125 C 16.5115 12.32225 16.84375 11.96875 16.84375 11.96875 L 17.21875 12 L 17 11.5 L 16.3125 10.71875 L 16.4375 10.658203 C 16.4375 10.658203 16.95889 10.693253 17 10.814453 C 17.0402 10.936253 17.66843 11.244303 17.5625 11.595703 C 17.38668 12.177003 17.8125 12.314453 17.8125 12.314453 C 17.8125 12.314453 18.18185 12.401403 18.34375 12.095703 C 18.48447 11.829103 18.5 11.595703 18.5 11.595703 L 18.96875 11.5 C 18.96875 11.5 18.92395 10.5269 19.4375 10.5 C 19.95104 10.474 20 10.5 20 10.5 C 20 10.5 21.12794 10.87255 21.25 11.15625 C 21.37111 11.43985 21.4271 11.7096 21.0625 11.75 C 20.69758 11.791 20.15625 11.720703 20.15625 11.720703 C 20.15625 11.720703 18.72201 11.503203 18.84375 11.908203 C 18.96518 12.313703 19.09375 12.720703 19.09375 12.720703 C 19.09375 12.720703 19.40543 12.688 19.6875 12.75 C 19.98886 12.819 20.375 12.78125 20.375 12.78125 L 20.4375 13.46875 L 20.25 13.53125 C 20.04572 13.58825 19.44347 13.6273 19.28125 13.6875 C 19.11903 13.7475 17.35298 13.4393 17.3125 13.5 C 17.272 13.56 16.69913 13.7682 16.375 13.6875 C 16.05056 13.6065 15.96875 12.84375 15.96875 12.84375 C 15.96875 12.84375 15.91045 12.48 15.6875 12.5 C 15.46425 12.52 13.9375 12.65625 13.9375 12.65625 C 13.9375 12.65625 13.4375 12.879 13.4375 13 C 13.4375 13 13.29613 12.8984 13.09375 13 C 12.89105 13.1018 12.58127 13.088 12.5 13.25 C 12.419 13.4125 12.09972 13.716 11.9375 14 C 11.7756 14.2834 11.30956 14.3055 11.1875 14.8125 C 11.06576 15.3191 10.97976 16.16625 11 16.53125 C 11.0202 16.89615 11.0104 17.8014 11.375 18 C 11.73992 18.1992 12.22379 18.6918 12.40625 18.875 C 12.58839 19.0571 13.56576 19.2059 13.6875 19.125 C 13.80893 19.044 14.24581 18.875 14.46875 18.875 C 14.692 18.875 15.17083 18.90995 15.3125 19.03125 C 15.45417 19.15305 15.62794 19.41455 15.75 19.71875 C 15.87111 20.02275 15.99256 20.53595 16.09375 20.71875 C 16.19526 20.90115 16.5798 21.24885 16.4375 21.59375 C 16.29583 21.93855 16.05327 22.2821 16.09375 22.6875 C 16.13425 23.0925 16.37705 23.6301 16.46875 23.8125 C 16.56105 23.9945 17.14555 24.5672 17.125 24.75 C 17.1051 24.9321 17.27738 24.88715 17.5 24.96875 C 17.72294 25.04975 18.67083 24.7876 18.8125 24.625 C 18.95448 24.4629 19.17441 23.9512 19.4375 23.6875 C 19.70091 23.4237 20.24729 22.9917 20.53125 22.6875 C 20.81458 22.3833 21.10476 22.10375 21.125 21.71875 C 21.1446 21.33315 20.92199 20.48565 21.125 20.34375 C 21.32801 20.20175 21.60917 19.98235 21.8125 19.71875 C 22.0152 19.45545 22.44612 19.4762 22.75 18.625 C 23.0542 17.7737 23.15446 17.50945 23.09375 17.46875 C 23.03365 17.42775 22.55033 17.6286 22.46875 17.75 C 22.38775 17.8718 21.91401 17.902 21.8125 18 C 21.71131 18.098 21.25 18 21.25 18 C 21.25 18 21.44499 17.23205 21.34375 16.96875 C 21.24224 16.70555 20.72472 15.6773 20.5625 15.3125 C 20.42937 15.0134 20.40609 14.667 20.46875 14.4375 C 20.49465 14.4745 20.51105 14.49525 20.53125 14.53125 C 20.60305 14.66075 20.99213 15.12095 21.15625 15.59375 C 21.50694 16.60725 21.90625 17.34375 21.90625 17.34375 C 21.90625 17.34375 22.43436 17.3638 23.3125 16.6875 C 23.91016 16.2281 24.54905 16.20425 24.65625 15.96875 C 24.85895 15.52255 24.03125 15.125 24.03125 15.125 L 23.28125 15.125 L 22.71875 14.15625 L 22.875 14.09375 C 22.875 14.09375 23.49792 14.8125 23.78125 14.8125 C 24.06458 14.8125 24.81933 14.74745 25.0625 15.03125 C 25.30567 15.31495 26.06576 15.79455 26.1875 16.28125 C 26.30956 16.76745 26.2477 17.4471 26.46875 17.6875 C 26.77991 18.0257 27.0625 18 27.0625 18 L 27.4375 17.125 L 28.3125 16.125 L 28.498047 16.03125 C 28.480976 22.926139 22.898911 28.5 16 28.5 C 12.726364 28.5 9.758437 27.233308 7.53125 25.177734 L 7.90625 24.625 L 8.34375 22.875 L 7.28125 22.21875 L 6.0625 21.8125 L 5.25 19.84375 C 5.25 19.84375 4.4916494 19.230753 3.8632812 18.947266 C 3.634358 18.00043 3.5 17.017717 3.5 16 C 3.5 15.262569 3.5770521 14.543986 3.6992188 13.841797 C 4.4677105 13.252889 5.5 12.78125 5.5 12.78125 C 5.5 12.78125 6.06992 12.71625 5.09375 11.09375 C 4.9527868 10.859462 4.8704127 10.643677 4.8164062 10.4375 C 5.2264823 9.613717 5.7148785 8.8367527 6.2890625 8.1289062 C 6.2393279 8.424924 6.0448717 9.657724 6.40625 9.875 C 6.81101 10.1182 7.19967 9.3681 7.28125 9.125 C 7.36225 8.8818 8.20681 7.95505 8.53125 7.46875 C 8.7624675 7.1218952 8.6807414 6.4485992 8.4433594 6.0546875 C 10.542802 4.4575985 13.155349 3.5 16 3.5 z M 13.53125 5.75 C 13.33719 5.769 12.9375 5.8735 12.9375 6.1875 L 12.9375 6.78125 C 12.9375 6.78125 12.81735 6.9951 12.75 7.0625 C 12.682 7.1305 12.74105 7.441 12.78125 7.5625 C 12.82175 7.6846 12.84375 8.0625 12.84375 8.0625 C 12.84375 8.0625 13.03968 8.16525 13.09375 8.21875 C 13.14785 8.27175 13.6098 8.38905 13.8125 8.28125 C 14.0152 8.17355 14.13263 7.8886 14.28125 7.875 C 14.42987 7.861 14.3394 7.862 14.3125 7.75 C 14.2856 7.6422 14.4375 7.25 14.4375 7.25 L 14.03125 6.90625 C 14.03125 6.90625 13.78531 6.38075 13.8125 6.21875 C 13.8391 6.05615 13.61235 5.7699 13.625 5.75 C 13.628 5.74 13.59585 5.74 13.53125 5.75 z M 12.46875 6.9375 C 12.41375 6.9615 12.30763 7.0944 12.25 7.125 C 12.1731 7.164 12.19695 7.29845 12.15625 7.40625 C 12.11575 7.51445 12 7.90625 12 7.90625 L 12.25 8 C 12.24938 8 12.64702 7.92495 12.6875 7.84375 C 12.7201 7.77875 12.6027 7.42425 12.5625 7.28125 C 12.5525 7.24725 12.5625 7.21875 12.5625 7.21875 L 12.5 6.96875 C 12.4898 6.94875 12.48705 6.9285 12.46875 6.9375 z M 22.9375 10.375 C 23.0295 10.375 23.20944 10.43875 23.25 10.46875 C 23.3041 10.50975 23.3041 10.98435 23.25 11.28125 C 23.1959 11.57885 23.41905 11.75445 23.5 11.78125 C 23.5816 11.80825 23.63891 12.45875 23.625 12.59375 C 23.6117 12.72885 23.22999 12.83045 23.125 12.84375 C 23.02033 12.85775 22.58047 12.85375 22.59375 12.65625 C 22.60765 12.45985 22.51845 11.8193 22.4375 11.5625 C 22.3565 11.3057 22.3783 10.9427 22.5 10.875 C 22.62175 10.808 22.875 10.40625 22.875 10.40625 C 22.8852 10.38425 22.9068 10.376 22.9375 10.375 z M 22.375 21.4375 C 22.3264 21.4375 22.25592 21.44775 22.1875 21.46875 C 22.1875 21.46875 22.159 22.0676 21.875 22.25 C 21.59167 22.4325 21.40625 22.78635 21.40625 22.96875 C 21.40625 23.15135 21.34555 23.3174 21.40625 23.5 C 21.46695 23.6824 21.60543 23.833 21.78125 23.8125 C 21.95739 23.7925 22.14702 23.4122 22.1875 23.25 C 22.228 23.0879 22.3792 22.7383 22.5 22.625 C 22.62175 22.5125 22.64555 22.19385 22.625 22.03125 C 22.6076 21.88955 22.7148 21.4298 22.375 21.4375 z " transform="translate(0,1020.3622)" id="path6027-3-4"/>
  </g>

	
	
	<metadata>
		<rdf:RDF xmlns:rdf="http://www.w3.org/1999/02/22-rdf-syntax-ns#" xmlns:rdfs="http://www.w3.org/2000/01/rdf-schema#" xmlns:dc="http://purl.org/dc/elements/1.1/">
			<rdf:Description about="https://iconscout.com/legal#licenses" dc:title="Earth, Global, Globe, International, Map, Planet, World" dc:description="Earth, Global, Globe, International, Map, Planet, World" dc:publisher="Iconscout" dc:date="2016-12-14" dc:format="image/svg+xml" dc:language="en">
				<dc:creator>
					<rdf:Bag>
						<rdf:li>Chamestudio</rdf:li>
					</rdf:Bag>
				</dc:creator>
			</rdf:Description>
		</rdf:RDF>
    </metadata></svg>
